<?xml version="1.0" encoding="utf-8"?>
<!-- Generator: Adobe Illustrator 18.1.1, SVG Export Plug-In . SVG Version: 6.00 Build 0)  -->
<!DOCTYPE svg PUBLIC "-//W3C//DTD SVG 1.1//EN" "http://www.w3.org/Graphics/SVG/1.1/DTD/svg11.dtd">
<svg version="1.1" id="Layer_1" xmlns="http://www.w3.org/2000/svg" xmlns:xlink="http://www.w3.org/1999/xlink" x="0px" y="0px"
	 viewBox="-233 356.9 128 128" enable-background="new -233 356.9 128 128" xml:space="preserve">
<line fill="#BBECF2" stroke="#BBECF2" stroke-width="3" stroke-miterlimit="10" x1="-148" y1="420.9" x2="-133" y2="420.9"/>
<g>
	<polygon fill="#BBECF2" stroke="#BBECF2" stroke-miterlimit="10" points="-139.2,428.9 -140.6,427.4 -133.4,420.7 -140.6,414 
		-139.2,412.5 -130.4,420.7 	"/>
</g>
<rect x="-162" y="398.9" fill="none" stroke="#BBECF2" stroke-width="4" stroke-miterlimit="10" width="45" height="44"/>
<line fill="#BBECF2" stroke="#BBECF2" stroke-width="3" stroke-miterlimit="10" x1="-189" y1="420.9" x2="-204" y2="420.9"/>
<g>
	<polygon fill="#BBECF2" stroke="#BBECF2" stroke-miterlimit="10" points="-197.8,412.5 -196.4,414 -203.6,420.7 -196.4,427.4 
		-197.8,428.9 -206.6,420.7 	"/>
</g>
<rect x="-221" y="398.9" fill="none" stroke="#BBECF2" stroke-width="4" stroke-miterlimit="10" width="45" height="44"/>
<g>
	<line fill="#BBECF2" stroke="#BBECF2" stroke-width="3" stroke-miterlimit="10" x1="-169" y1="393.9" x2="-169" y2="379.9"/>
	<g>
		<polygon fill="#BBECF2" stroke="#BBECF2" stroke-miterlimit="10" points="-160.5,386.7 -162,388 -168.7,380.8 -175.4,388 
			-176.9,386.7 -168.7,377.9 		"/>
	</g>
</g>
<polyline fill="none" stroke="#BBECF2" stroke-width="2" stroke-miterlimit="10" points="-200,394.9 -200,371.9 -138,371.9 
	-138,394.9 "/>
<line fill="#BBECF2" stroke="#BBECF2" stroke-width="3" stroke-miterlimit="10" x1="-169" y1="447.9" x2="-169" y2="461.9"/>
<g>
	<polygon fill="#BBECF2" stroke="#BBECF2" stroke-miterlimit="10" points="-176.9,455.1 -175.4,453.7 -168.7,461 -162,453.7 
		-160.5,455.1 -168.7,463.9 	"/>
</g>
<polyline fill="none" stroke="#BBECF2" stroke-width="2" stroke-miterlimit="10" points="-200,446.9 -200,469.9 -138,469.9 
	-138,446.9 "/>
</svg>
